 http://www.imdb.com/title/tt0285742/

Source: Monster's.Ball.2001.720p.BluRay.DTS.x264-DON Thanks!

Subs: Arabic, Brazilian, Czech, Danish, Dutch, English, Farsi-Persian, Hebrew, Indonesian, Romanian, Spanish and Turkish.

Sample and Screens included.

General
Complete name                            : Monsters Ball-720p MP4 AAC x264 BRRip 2001-CC.mp4
Format                                   : MPEG-4
Format profile                           : Base Media
Codec ID                                 : isom
File size                                : 3.00 GiB
Duration                                 : 1h 52mn
Overall bit rate mode                    : Variable
Overall bit rate                         : 3 811 Kbps
Encoded date                             : UTC 2012-11-03 09:20:05

Video
ID                                       : 1
Format                                   : AVC
Format/Info                              : Advanced Video Codec
Format profile                           : High@L4.1
Format settings, CABAC                   : Yes
Format settings, ReFrames                : 5 frames
Codec ID                                 : avc1
Codec ID/Info                            : Advanced Video Coding
Duration                                 : 1h 52mn
Source duration                          : 1h 52mn
Bit rate                                 : 3 419 Kbps
Maximum bit rate                         : 11.3 Mbps
Width                                    : 1 280 pixels
Height                                   : 544 pixels
Display aspect ratio                     : 2.35:1
Frame rate mode                          : Variable
Frame rate                               : 23.976 fps
Minimum frame rate                       : 19.048 fps
Maximum frame rate                       : 24.390 fps
Color space                              : YUV
Chroma subsampling                       : 4:2:0
Bit depth                                : 8 bits
Scan type                                : Progressive
Bits/(Pixel*Frame)                       : 0.205
Stream size                              : 2.69 GiB (90%)
Source stream size                       : 2.69 GiB (90%)
Writing library                          : x264 core 112

Audio
ID                                       : 2
Format                                   : AAC
Format/Info                              : Advanced Audio Codec
Format profile                           : LC
Codec ID                                 : 40
Duration                                 : 1h 52mn
Bit rate mode                            : Variable
Bit rate                                 : 384 Kbps
Maximum bit rate                         : 643 Kbps
Channel(s)                               : 6 channels
Channel positions                        : Front: L C R, Side: L R, LFE
Sampling rate                            : 48.0 KHz
Compression mode                         : Lossy
Delay relative to video                  : 105ms
Stream size                              : 310 MiB (10%)
Language                                 : English

Enjoy...

Requested by iamharski

Coming soon: The Horse Whisperer, 21 Grams, The Interpreter, Les Diaboliques and more...